M48
; DRILL file {KiCad 7.0.10-7.0.10~ubuntu20.04.1} date Du 02 iun 2024 20:57:36 +0300
; FORMAT={-:-/ absolute / inch / decimal}
; #@! TF.CreationDate,2024-06-02T20:57:36+03:00
; #@! TF.GenerationSoftware,Kicad,Pcbnew,7.0.10-7.0.10~ubuntu20.04.1
; #@! TF.FileFunction,MixedPlating,1,2
FMAT,2
INCH
; #@! TA.AperFunction,Plated,PTH,ViaDrill
T1C0.0197
; #@! TA.AperFunction,Plated,PTH,ComponentDrill
T2C0.0394
; #@! TA.AperFunction,Plated,PTH,ComponentDrill
T3C0.0433
; #@! TA.AperFunction,Plated,PTH,ViaDrill
T4C0.0472
; #@! TA.AperFunction,Plated,PTH,ComponentDrill
T5C0.1260
; #@! TA.AperFunction,NonPlated,NPTH,ComponentDrill
T6C0.1260
%
G90
G05
T1
X0.1575Y1.8504
X0.1575Y1.752
X0.2362Y1.437
X0.2362Y0.9252
X0.315Y0.374
X0.5906Y1.6142
X0.5906Y0.9252
X0.5906Y0.4921
X0.5906Y0.2756
X0.7087Y0.6693
X0.7087Y0.2756
X0.8268Y1.9291
X0.8268Y1.6142
X1.122Y1.4173
X1.122Y1.0039
X1.2008Y1.4173
X1.3189Y1.0049
X1.3189Y0.8071
X1.3189Y0.6102
X1.3189Y0.2165
X1.3976Y0.8071
X1.3976Y0.2953
X1.4764Y1.8701
X1.4764Y1.0827
X1.5551Y2.0866
X1.5551Y1.8701
X1.5551Y1.5748
X1.5551Y1.0039
X1.6142Y0.4528
X1.6339Y1.8701
X1.6339Y1.6929
X1.6339Y1.5748
X1.6339Y1.0827
X1.7126Y1.8701
X1.7126Y1.5748
X1.9488Y2.0866
X2.4213Y2.0669
X2.4213Y1.752
X2.4213Y1.5748
X2.4213Y1.2205
X2.5591Y2.1063
X2.5591Y1.9882
X2.7559Y2.1063
X2.7559Y1.9882
X2.7559Y1.2795
X2.9528Y2.1063
X2.9528Y1.9882
X2.9528Y1.8701
X3.5236Y0.8465
X3.5236Y0.6693
T2
X0.0787Y1.772
X0.0787Y1.672
X0.0787Y1.572
X0.0787Y1.472
X0.0787Y1.372
X0.0787Y1.272
X0.0787Y1.172
X0.0787Y1.072
X0.0787Y0.972
X0.0787Y0.872
X0.0787Y0.772
X0.0787Y0.672
X0.0787Y0.572
X0.0787Y0.472
X0.4087Y2.1744
X0.4087Y2.0744
X0.4087Y1.9744
X0.4087Y1.8744
X0.4087Y1.7744
X0.4087Y1.6744
X0.4087Y1.5744
X0.4087Y1.4744
X0.4087Y1.3744
X0.4087Y1.2744
X0.4087Y1.1744
X0.4087Y1.0744
X0.4087Y0.9744
X0.4087Y0.8744
X0.4087Y0.7744
X0.4087Y0.6744
X0.4087Y0.5744
X0.4087Y0.4744
X0.4087Y0.3744
X0.4087Y0.2744
X1.0087Y2.1744
X1.0087Y2.0744
X1.0087Y1.9744
X1.0087Y1.8744
X1.0087Y1.7744
X1.0087Y1.6744
X1.0087Y1.5744
X1.0087Y1.4744
X1.0087Y1.3744
X1.0087Y1.2744
X1.0087Y1.1744
X1.0087Y1.0744
X1.0087Y0.9744
X1.0087Y0.8744
X1.0087Y0.7744
X1.0087Y0.6744
X1.0087Y0.5744
X1.0087Y0.4744
X1.0087Y0.3744
X1.0087Y0.2744
X1.2205Y1.9429
X1.2205Y1.8429
X1.2205Y1.7429
X1.2205Y1.0039
X1.2205Y0.9039
X1.2205Y0.8039
X1.2205Y0.6102
X1.2205Y0.5102
X1.2205Y0.4102
X1.2205Y0.3102
X1.2205Y0.2102
X1.6142Y0.8386
X1.6142Y0.5394
X1.624Y1.1917
X1.724Y1.1917
X1.824Y1.1917
X1.924Y1.1917
X2.024Y1.1917
X2.124Y1.1917
X3.7795Y1.572
X3.7795Y1.472
X3.7795Y1.372
X3.7795Y1.272
X3.7795Y1.172
X3.7795Y1.072
X3.7795Y0.972
X3.7795Y0.872
X3.7795Y0.772
X3.7795Y0.672
T3
X3.0669Y2.1654
X3.185Y2.1654
X3.3031Y2.1654
T4
X0.0591Y1.9094
X0.0591Y0.3346
X3.7992Y1.9094
X3.7992Y0.3346
T5
X2.8071Y1.122
X2.8071Y0.3346
T6
X0.1181Y2.0965
X0.1181Y0.1476
X3.7402Y2.0965
X3.7402Y0.1476
M30
